<svg width="17" height="17" viewBox="0 0 17 17" fill="none" xmlns="http://www.w3.org/2000/svg">
<g clip-path="url(#clip0_6_128)">
<path d="M4.76665 6.9C3.91796 6.9 3.10403 6.56286 2.50391 5.96274C1.90379 5.36263 1.56665 4.54869 1.56665 3.7C1.56665 2.85131 1.90379 2.03737 2.50391 1.43726C3.10403 0.837142 3.91796 0.5 4.76665 0.5L12.2333 0.5C13.082 0.5 13.8959 0.837142 14.4961 1.43726C15.0962 2.03737 15.4333 2.85131 15.4333 3.7C15.4333 4.54869 15.0962 5.36263 14.4961 5.96274C13.8959 6.56286 13.082 6.9 12.2333 6.9H10.1V4.23333C10.1 3.52609 9.81903 2.84781 9.31894 2.34772C8.81884 1.84762 8.14056 1.56667 7.43332 1.56667C6.72607 1.56667 6.0478 1.84762 5.5477 2.34772C5.0476 2.84781 4.76665 3.52609 4.76665 4.23333V6.9Z" fill="white"/>
<path d="M7.27948 3.14786C6.85546 3.13105 6.44214 3.28337 6.13043 3.57131C5.81873 3.85925 5.63417 4.25922 5.61736 4.68324L5.42515 9.53276C4.81842 9.63176 4.26454 9.93734 3.85723 10.3978C3.44992 10.8582 3.21421 11.4453 3.18999 12.0596C3.13957 13.3316 3.59653 14.5716 4.46035 15.5067C5.32416 16.4418 6.52408 16.9955 7.79612 17.0459L8.32903 17.067C9.74241 17.123 11.1202 16.6153 12.1592 15.6555C13.1982 14.6957 13.8134 13.3625 13.8694 11.9491L13.9054 11.0399C13.9295 10.433 13.7115 9.84143 13.2993 9.39528C12.8872 8.94912 12.3147 8.68496 11.7078 8.6609L8.66699 8.54038L8.81485 4.80997C8.83166 4.38596 8.67934 3.97263 8.3914 3.66093C8.10346 3.34922 7.70349 3.16466 7.27948 3.14786Z" fill="white"/>
</g>
<defs>
<clipPath id="clip0_6_128">
<rect width="16" height="16" fill="white" transform="translate(0.5 0.5)"/>
</clipPath>
</defs>
</svg>
